<?xml version="1.0" encoding="UTF-8" standalone="no"?>
<!DOCTYPE svg PUBLIC "-//W3C//DTD SVG 1.1//EN"
 "http://www.w3.org/Graphics/SVG/1.1/DTD/svg11.dtd">
<!-- Generated by graphviz version 2.40.1 (20161225.0304)
 -->
<!-- Title: dependencies Pages: 1 -->
<svg width="6263pt" height="366pt"
 viewBox="0.00 0.00 6263.00 366.00" xmlns="http://www.w3.org/2000/svg" xmlns:xlink="http://www.w3.org/1999/xlink">
<g id="graph0" class="graph" transform="scale(1 1) rotate(0) translate(4 362)">
<title>dependencies</title>
<polygon fill="#ffffff" stroke="transparent" points="-4,4 -4,-362 6259,-362 6259,4 -4,4"/>
<text text-anchor="start" x="3106.5091" y="-42.4" font-family="sans-serif" font-weight="bold" font-size="14.00" fill="#000000">Legend</text>
<polygon fill="#ffffb3" stroke="transparent" points="2893.5,-10 2893.5,-30 2913.5,-30 2913.5,-10 2893.5,-10"/>
<text text-anchor="start" x="2917.129" y="-15.4" font-family="sans-serif" font-size="14.00" fill="#000000"> &#160;Declarations</text>
<polygon fill="#8dd3c7" stroke="transparent" points="3006.5,-10 3006.5,-30 3026.5,-30 3026.5,-10 3006.5,-10"/>
<text text-anchor="start" x="3030.2251" y="-15.4" font-family="sans-serif" font-size="14.00" fill="#000000"> &#160;Module</text>
<polygon fill="#80b1d3" stroke="transparent" points="3092.5,-10 3092.5,-30 3112.5,-30 3112.5,-10 3092.5,-10"/>
<text text-anchor="start" x="3116.2812" y="-15.4" font-family="sans-serif" font-size="14.00" fill="#000000"> &#160;Bootstrap</text>
<polygon fill="#fdb462" stroke="transparent" points="3189.5,-10 3189.5,-30 3209.5,-30 3209.5,-10 3189.5,-10"/>
<text text-anchor="start" x="3213.1732" y="-15.4" font-family="sans-serif" font-size="14.00" fill="#000000"> &#160;Providers</text>
<polygon fill="#fb8072" stroke="transparent" points="3285.5,-10 3285.5,-30 3305.5,-30 3305.5,-10 3285.5,-10"/>
<text text-anchor="start" x="3309.2258" y="-15.4" font-family="sans-serif" font-size="14.00" fill="#000000"> &#160;Exports</text>
<g id="clust1" class="cluster">
<title>cluster_AppModule</title>
<polygon fill="none" stroke="#000000" stroke-dasharray="1,5" points="8,-146 8,-350 5967,-350 5967,-146 8,-146"/>
</g>
<g id="clust2" class="cluster">
<title>cluster_AppModule_declarations</title>
<polygon fill="none" stroke="#000000" points="480,-154 480,-206 5690,-206 5690,-154 480,-154"/>
</g>
<g id="clust36" class="cluster">
<title>cluster_AppModule_imports</title>
<polygon fill="none" stroke="#000000" points="5698,-154 5698,-206 5959,-206 5959,-154 5698,-154"/>
</g>
<g id="clust38" class="cluster">
<title>cluster_AppModule_bootstrap</title>
<polygon fill="none" stroke="#000000" points="2863,-290 2863,-342 2987,-342 2987,-290 2863,-290"/>
</g>
<g id="clust39" class="cluster">
<title>cluster_AppModule_providers</title>
<polygon fill="none" stroke="#000000" points="16,-154 16,-206 472,-206 472,-154 16,-154"/>
</g>
<g id="clust40" class="cluster">
<title>cluster_AppRoutingModule</title>
<polygon fill="none" stroke="#000000" stroke-dasharray="1,5" points="5695,-70 5695,-138 5845,-138 5845,-70 5695,-70"/>
</g>
<g id="clust45" class="cluster">
<title>cluster_AppRoutingModule_providers</title>
<polygon fill="none" stroke="#000000" points="5703,-78 5703,-130 5837,-130 5837,-78 5703,-78"/>
</g>
<g id="clust52" class="cluster">
<title>cluster_SharedModule</title>
<polygon fill="none" stroke="#000000" stroke-dasharray="1,5" points="5975,-214 5975,-282 6247,-282 6247,-214 5975,-214"/>
</g>
<g id="clust54" class="cluster">
<title>cluster_SharedModule_imports</title>
<polygon fill="none" stroke="#000000" points="6117,-222 6117,-274 6239,-274 6239,-222 6117,-222"/>
</g>
<g id="clust55" class="cluster">
<title>cluster_SharedModule_exports</title>
<polygon fill="none" stroke="#000000" points="5983,-222 5983,-274 6109,-274 6109,-222 5983,-222"/>
</g>
<!-- AppComponent -->
<g id="node1" class="node">
<title>AppComponent</title>
<polygon fill="#ffffb3" stroke="#000000" points="5681.9399,-198 5576.0601,-198 5576.0601,-162 5681.9399,-162 5681.9399,-198"/>
<text text-anchor="middle" x="5629" y="-175.8" font-family="Times,serif" font-size="14.00" fill="#000000">AppComponent</text>
</g>
<!-- AppModule -->
<g id="node34" class="node">
<title>AppModule</title>
<polygon fill="#8dd3c7" stroke="#000000" points="2966.6571,-266 2963.6571,-270 2942.6571,-270 2939.6571,-266 2883.3429,-266 2883.3429,-230 2966.6571,-230 2966.6571,-266"/>
<text text-anchor="middle" x="2925" y="-243.8" font-family="Times,serif" font-size="14.00" fill="#000000">AppModule</text>
</g>
<!-- AppComponent&#45;&gt;AppModule -->
<g id="edge1" class="edge">
<title>AppComponent&#45;&gt;AppModule</title>
<path fill="none" stroke="#000000" d="M5629,-198.3228C5629,-221.6602 5629,-259 5629,-259 5629,-259 2976.6606,-259 2976.6606,-259"/>
<polygon fill="#000000" stroke="#000000" points="2976.6607,-255.5001 2966.6606,-259 2976.6606,-262.5001 2976.6607,-255.5001"/>
</g>
<!-- BookComponent -->
<g id="node2" class="node">
<title>BookComponent</title>
<polygon fill="#ffffb3" stroke="#000000" points="5557.6695,-198 5446.3305,-198 5446.3305,-162 5557.6695,-162 5557.6695,-198"/>
<text text-anchor="middle" x="5502" y="-175.8" font-family="Times,serif" font-size="14.00" fill="#000000">BookComponent</text>
</g>
<!-- BookComponent&#45;&gt;AppModule -->
<g id="edge2" class="edge">
<title>BookComponent&#45;&gt;AppModule</title>
<path fill="none" stroke="#000000" d="M5502,-198.2479C5502,-221.0179 5502,-257 5502,-257 5502,-257 2976.7852,-257 2976.7852,-257"/>
<polygon fill="#000000" stroke="#000000" points="2976.7852,-253.5001 2966.7852,-257 2976.7852,-260.5001 2976.7852,-253.5001"/>
</g>
<!-- BookCreateComponent -->
<g id="node3" class="node">
<title>BookCreateComponent</title>
<polygon fill="#ffffb3" stroke="#000000" points="5428.2007,-198 5279.7993,-198 5279.7993,-162 5428.2007,-162 5428.2007,-198"/>
<text text-anchor="middle" x="5354" y="-175.8" font-family="Times,serif" font-size="14.00" fill="#000000">BookCreateComponent</text>
</g>
<!-- BookCreateComponent&#45;&gt;AppModule -->
<g id="edge3" class="edge">
<title>BookCreateComponent&#45;&gt;AppModule</title>
<path fill="none" stroke="#000000" d="M5354,-198.0109C5354,-220.4852 5354,-256 5354,-256 5354,-256 2976.9039,-256 2976.9039,-256"/>
<polygon fill="#000000" stroke="#000000" points="2976.904,-252.5001 2966.9039,-256 2976.9039,-259.5001 2976.904,-252.5001"/>
</g>
<!-- BookDetailComponent -->
<g id="node4" class="node">
<title>BookDetailComponent</title>
<polygon fill="#ffffb3" stroke="#000000" points="5261.8767,-198 5116.1233,-198 5116.1233,-162 5261.8767,-162 5261.8767,-198"/>
<text text-anchor="middle" x="5189" y="-175.8" font-family="Times,serif" font-size="14.00" fill="#000000">BookDetailComponent</text>
</g>
<!-- BookDetailComponent&#45;&gt;AppModule -->
<g id="edge4" class="edge">
<title>BookDetailComponent&#45;&gt;AppModule</title>
<path fill="none" stroke="#000000" d="M5189,-198.2921C5189,-220.2057 5189,-254 5189,-254 5189,-254 2976.7186,-254 2976.7186,-254"/>
<polygon fill="#000000" stroke="#000000" points="2976.7186,-250.5001 2966.7186,-254 2976.7185,-257.5001 2976.7186,-250.5001"/>
</g>
<!-- BookEditComponent -->
<g id="node5" class="node">
<title>BookEditComponent</title>
<polygon fill="#ffffb3" stroke="#000000" points="5098.5028,-198 4963.4972,-198 4963.4972,-162 5098.5028,-162 5098.5028,-198"/>
<text text-anchor="middle" x="5031" y="-175.8" font-family="Times,serif" font-size="14.00" fill="#000000">BookEditComponent</text>
</g>
<!-- BookEditComponent&#45;&gt;AppModule -->
<g id="edge5" class="edge">
<title>BookEditComponent&#45;&gt;AppModule</title>
<path fill="none" stroke="#000000" d="M5031,-198.1686C5031,-219.498 5031,-252 5031,-252 5031,-252 2977.0681,-252 2977.0681,-252"/>
<polygon fill="#000000" stroke="#000000" points="2977.0682,-248.5001 2967.0681,-252 2977.0681,-255.5001 2977.0682,-248.5001"/>
</g>
<!-- ChatComponent -->
<g id="node6" class="node">
<title>ChatComponent</title>
<polygon fill="#ffffb3" stroke="#000000" points="4945.7744,-198 4838.2256,-198 4838.2256,-162 4945.7744,-162 4945.7744,-198"/>
<text text-anchor="middle" x="4892" y="-175.8" font-family="Times,serif" font-size="14.00" fill="#000000">ChatComponent</text>
</g>
<!-- ChatComponent&#45;&gt;AppModule -->
<g id="edge6" class="edge">
<title>ChatComponent&#45;&gt;AppModule</title>
<path fill="none" stroke="#000000" d="M4892,-198.0267C4892,-218.7672 4892,-250 4892,-250 4892,-250 2976.9936,-250 2976.9936,-250"/>
<polygon fill="#000000" stroke="#000000" points="2976.9936,-246.5001 2966.9936,-250 2976.9936,-253.5001 2976.9936,-246.5001"/>
</g>
<!-- ChatHistoryComponent -->
<g id="node7" class="node">
<title>ChatHistoryComponent</title>
<polygon fill="#ffffb3" stroke="#000000" points="4819.7674,-198 4670.2326,-198 4670.2326,-162 4819.7674,-162 4819.7674,-198"/>
<text text-anchor="middle" x="4745" y="-175.8" font-family="Times,serif" font-size="14.00" fill="#000000">ChatHistoryComponent</text>
</g>
<!-- ChatHistoryComponent&#45;&gt;AppModule -->
<g id="edge7" class="edge">
<title>ChatHistoryComponent&#45;&gt;AppModule</title>
<path fill="none" stroke="#000000" d="M4745,-198.2228C4745,-218.3652 4745,-248 4745,-248 4745,-248 2976.8699,-248 2976.8699,-248"/>
<polygon fill="#000000" stroke="#000000" points="2976.8699,-244.5001 2966.8699,-248 2976.8698,-251.5001 2976.8699,-244.5001"/>
</g>
<!-- FacultyAddComponent -->
<g id="node8" class="node">
<title>FacultyAddComponent</title>
<polygon fill="#ffffb3" stroke="#000000" points="4651.9326,-198 4504.0674,-198 4504.0674,-162 4651.9326,-162 4651.9326,-198"/>
<text text-anchor="middle" x="4578" y="-175.8" font-family="Times,serif" font-size="14.00" fill="#000000">FacultyAddComponent</text>
</g>
<!-- FacultyAddComponent&#45;&gt;AppModule -->
<g id="edge8" class="edge">
<title>FacultyAddComponent&#45;&gt;AppModule</title>
<path fill="none" stroke="#000000" d="M4578,-198.308C4578,-218.1455 4578,-247 4578,-247 4578,-247 2976.6876,-247 2976.6876,-247"/>
<polygon fill="#000000" stroke="#000000" points="2976.6877,-243.5001 2966.6876,-247 2976.6876,-250.5001 2976.6877,-243.5001"/>
</g>
<!-- LoginComponent -->
<g id="node9" class="node">
<title>LoginComponent</title>
<polygon fill="#ffffb3" stroke="#000000" points="4486.2758,-198 4371.7242,-198 4371.7242,-162 4486.2758,-162 4486.2758,-198"/>
<text text-anchor="middle" x="4429" y="-175.8" font-family="Times,serif" font-size="14.00" fill="#000000">LoginComponent</text>
</g>
<!-- LoginComponent&#45;&gt;AppModule -->
<g id="edge9" class="edge">
<title>LoginComponent&#45;&gt;AppModule</title>
<path fill="none" stroke="#000000" d="M4429,-198.1061C4429,-217.3391 4429,-245 4429,-245 4429,-245 2976.7953,-245 2976.7953,-245"/>
<polygon fill="#000000" stroke="#000000" points="2976.7953,-241.5001 2966.7953,-245 2976.7953,-248.5001 2976.7953,-241.5001"/>
</g>
<!-- MaterialDashboardComponent -->
<g id="node10" class="node">
<title>MaterialDashboardComponent</title>
<polygon fill="#ffffb3" stroke="#000000" points="4353.8946,-198 4164.1054,-198 4164.1054,-162 4353.8946,-162 4353.8946,-198"/>
<text text-anchor="middle" x="4259" y="-175.8" font-family="Times,serif" font-size="14.00" fill="#000000">MaterialDashboardComponent</text>
</g>
<!-- MaterialDashboardComponent&#45;&gt;AppModule -->
<g id="edge10" class="edge">
<title>MaterialDashboardComponent&#45;&gt;AppModule</title>
<path fill="none" stroke="#000000" d="M4259,-198.2222C4259,-216.8285 4259,-243 4259,-243 4259,-243 2976.7563,-243 2976.7563,-243"/>
<polygon fill="#000000" stroke="#000000" points="2976.7563,-239.5001 2966.7563,-243 2976.7562,-246.5001 2976.7563,-239.5001"/>
</g>
<!-- MaterialNavComponent -->
<g id="node11" class="node">
<title>MaterialNavComponent</title>
<polygon fill="#ffffb3" stroke="#000000" points="4146.0744,-198 3993.9256,-198 3993.9256,-162 4146.0744,-162 4146.0744,-198"/>
<text text-anchor="middle" x="4070" y="-175.8" font-family="Times,serif" font-size="14.00" fill="#000000">MaterialNavComponent</text>
</g>
<!-- MaterialNavComponent&#45;&gt;AppModule -->
<g id="edge11" class="edge">
<title>MaterialNavComponent&#45;&gt;AppModule</title>
<path fill="none" stroke="#000000" d="M4070,-198.302C4070,-216.2699 4070,-241 4070,-241 4070,-241 2976.7677,-241 2976.7677,-241"/>
<polygon fill="#000000" stroke="#000000" points="2976.7677,-237.5001 2966.7677,-241 2976.7677,-244.5001 2976.7677,-237.5001"/>
</g>
<!-- OfflineSessionComponent -->
<g id="node12" class="node">
<title>OfflineSessionComponent</title>
<polygon fill="#ffffb3" stroke="#000000" points="3976.0337,-198 3811.9663,-198 3811.9663,-162 3976.0337,-162 3976.0337,-198"/>
<text text-anchor="middle" x="3894" y="-175.8" font-family="Times,serif" font-size="14.00" fill="#000000">OfflineSessionComponent</text>
</g>
<!-- OfflineSessionComponent&#45;&gt;AppModule -->
<g id="edge12" class="edge">
<title>OfflineSessionComponent&#45;&gt;AppModule</title>
<path fill="none" stroke="#000000" d="M3894,-198.0225C3894,-215.3734 3894,-239 3894,-239 3894,-239 2976.9477,-239 2976.9477,-239"/>
<polygon fill="#000000" stroke="#000000" points="2976.9478,-235.5001 2966.9477,-239 2976.9477,-242.5001 2976.9478,-235.5001"/>
</g>
<!-- OfflineSessionDetailComponent -->
<g id="node13" class="node">
<title>OfflineSessionDetailComponent</title>
<polygon fill="#ffffb3" stroke="#000000" points="3793.2408,-198 3594.7592,-198 3594.7592,-162 3793.2408,-162 3793.2408,-198"/>
<text text-anchor="middle" x="3694" y="-175.8" font-family="Times,serif" font-size="14.00" fill="#000000">OfflineSessionDetailComponent</text>
</g>
<!-- OfflineSessionDetailComponent&#45;&gt;AppModule -->
<g id="edge13" class="edge">
<title>OfflineSessionDetailComponent&#45;&gt;AppModule</title>
<path fill="none" stroke="#000000" d="M3694,-198.0336C3694,-215.0597 3694,-238 3694,-238 3694,-238 2976.8909,-238 2976.8909,-238"/>
<polygon fill="#000000" stroke="#000000" points="2976.8909,-234.5001 2966.8909,-238 2976.8909,-241.5001 2976.8909,-234.5001"/>
</g>
<!-- OfflineSessionDialog -->
<g id="node14" class="node">
<title>OfflineSessionDialog</title>
<polygon fill="#ffffb3" stroke="#000000" points="3576.8033,-198 3439.1967,-198 3439.1967,-162 3576.8033,-162 3576.8033,-198"/>
<text text-anchor="middle" x="3508" y="-175.8" font-family="Times,serif" font-size="14.00" fill="#000000">OfflineSessionDialog</text>
</g>
<!-- OfflineSessionDialog&#45;&gt;AppModule -->
<g id="edge14" class="edge">
<title>OfflineSessionDialog&#45;&gt;AppModule</title>
<path fill="none" stroke="#000000" d="M3508,-198.027C3508,-214.3976 3508,-236 3508,-236 3508,-236 2976.9279,-236 2976.9279,-236"/>
<polygon fill="#000000" stroke="#000000" points="2976.928,-232.5001 2966.9279,-236 2976.9279,-239.5001 2976.928,-232.5001"/>
</g>
<!-- OnlineUsersComponent -->
<g id="node15" class="node">
<title>OnlineUsersComponent</title>
<polygon fill="#ffffb3" stroke="#000000" points="3421.8061,-198 3270.1939,-198 3270.1939,-162 3421.8061,-162 3421.8061,-198"/>
<text text-anchor="middle" x="3346" y="-175.8" font-family="Times,serif" font-size="14.00" fill="#000000">OnlineUsersComponent</text>
</g>
<!-- OnlineUsersComponent&#45;&gt;AppModule -->
<g id="edge15" class="edge">
<title>OnlineUsersComponent&#45;&gt;AppModule</title>
<path fill="none" stroke="#000000" d="M3346,-198.2819C3346,-213.9478 3346,-234 3346,-234 3346,-234 2976.9062,-234 2976.9062,-234"/>
<polygon fill="#000000" stroke="#000000" points="2976.9063,-230.5001 2966.9062,-234 2976.9062,-237.5001 2976.9063,-230.5001"/>
</g>
<!-- QuestionComponent -->
<g id="node16" class="node">
<title>QuestionComponent</title>
<polygon fill="#ffffb3" stroke="#000000" points="3251.8795,-198 3120.1205,-198 3120.1205,-162 3251.8795,-162 3251.8795,-198"/>
<text text-anchor="middle" x="3186" y="-175.8" font-family="Times,serif" font-size="14.00" fill="#000000">QuestionComponent</text>
</g>
<!-- QuestionComponent&#45;&gt;AppModule -->
<g id="edge16" class="edge">
<title>QuestionComponent&#45;&gt;AppModule</title>
<path fill="none" stroke="#000000" d="M3186,-198.1871C3186,-213.1824 3186,-232 3186,-232 3186,-232 2976.9342,-232 2976.9342,-232"/>
<polygon fill="#000000" stroke="#000000" points="2976.9342,-228.5001 2966.9342,-232 2976.9341,-235.5001 2976.9342,-228.5001"/>
</g>
<!-- QuestionCreateComponent -->
<g id="node17" class="node">
<title>QuestionCreateComponent</title>
<polygon fill="#ffffb3" stroke="#000000" points="3102.4115,-198 2933.5885,-198 2933.5885,-162 3102.4115,-162 3102.4115,-198"/>
<text text-anchor="middle" x="3018" y="-175.8" font-family="Times,serif" font-size="14.00" fill="#000000">QuestionCreateComponent</text>
</g>
<!-- QuestionCreateComponent&#45;&gt;AppModule -->
<g id="edge17" class="edge">
<title>QuestionCreateComponent&#45;&gt;AppModule</title>
<path fill="none" stroke="#000000" d="M2950.3114,-198.2228C2950.3114,-198.2228 2950.3114,-219.7269 2950.3114,-219.7269"/>
<polygon fill="#000000" stroke="#000000" points="2946.8114,-219.7269 2950.3114,-229.7269 2953.8114,-219.727 2946.8114,-219.7269"/>
</g>
<!-- QuestionDetailComponent -->
<g id="node18" class="node">
<title>QuestionDetailComponent</title>
<polygon fill="#ffffb3" stroke="#000000" points="2916.087,-198 2749.913,-198 2749.913,-162 2916.087,-162 2916.087,-198"/>
<text text-anchor="middle" x="2833" y="-175.8" font-family="Times,serif" font-size="14.00" fill="#000000">QuestionDetailComponent</text>
</g>
<!-- QuestionDetailComponent&#45;&gt;AppModule -->
<g id="edge18" class="edge">
<title>QuestionDetailComponent&#45;&gt;AppModule</title>
<path fill="none" stroke="#000000" d="M2899.6077,-198.2228C2899.6077,-198.2228 2899.6077,-219.7269 2899.6077,-219.7269"/>
<polygon fill="#000000" stroke="#000000" points="2896.1077,-219.7269 2899.6077,-229.7269 2903.1077,-219.727 2896.1077,-219.7269"/>
</g>
<!-- QuestionEditComponent -->
<g id="node19" class="node">
<title>QuestionEditComponent</title>
<polygon fill="#ffffb3" stroke="#000000" points="2731.7133,-198 2576.2867,-198 2576.2867,-162 2731.7133,-162 2731.7133,-198"/>
<text text-anchor="middle" x="2654" y="-175.8" font-family="Times,serif" font-size="14.00" fill="#000000">QuestionEditComponent</text>
</g>
<!-- QuestionEditComponent&#45;&gt;AppModule -->
<g id="edge19" class="edge">
<title>QuestionEditComponent&#45;&gt;AppModule</title>
<path fill="none" stroke="#000000" d="M2654,-198.1871C2654,-213.1824 2654,-232 2654,-232 2654,-232 2873.2502,-232 2873.2502,-232"/>
<polygon fill="#000000" stroke="#000000" points="2873.2502,-235.5001 2883.2502,-232 2873.2501,-228.5001 2873.2502,-235.5001"/>
</g>
<!-- QuizComponent -->
<g id="node20" class="node">
<title>QuizComponent</title>
<polygon fill="#ffffb3" stroke="#000000" points="2558.0452,-198 2449.9548,-198 2449.9548,-162 2558.0452,-162 2558.0452,-198"/>
<text text-anchor="middle" x="2504" y="-175.8" font-family="Times,serif" font-size="14.00" fill="#000000">QuizComponent</text>
</g>
<!-- QuizComponent&#45;&gt;AppModule -->
<g id="edge20" class="edge">
<title>QuizComponent&#45;&gt;AppModule</title>
<path fill="none" stroke="#000000" d="M2504,-198.2819C2504,-213.9478 2504,-234 2504,-234 2504,-234 2873.0938,-234 2873.0938,-234"/>
<polygon fill="#000000" stroke="#000000" points="2873.0938,-237.5001 2883.0938,-234 2873.0937,-230.5001 2873.0938,-237.5001"/>
</g>
<!-- QuizCreateComponent -->
<g id="node21" class="node">
<title>QuizCreateComponent</title>
<polygon fill="#ffffb3" stroke="#000000" points="2431.5758,-198 2286.4242,-198 2286.4242,-162 2431.5758,-162 2431.5758,-198"/>
<text text-anchor="middle" x="2359" y="-175.8" font-family="Times,serif" font-size="14.00" fill="#000000">QuizCreateComponent</text>
</g>
<!-- QuizCreateComponent&#45;&gt;AppModule -->
<g id="edge21" class="edge">
<title>QuizCreateComponent&#45;&gt;AppModule</title>
<path fill="none" stroke="#000000" d="M2359,-198.027C2359,-214.3976 2359,-236 2359,-236 2359,-236 2872.9204,-236 2872.9204,-236"/>
<polygon fill="#000000" stroke="#000000" points="2872.9205,-239.5001 2882.9204,-236 2872.9204,-232.5001 2872.9205,-239.5001"/>
</g>
<!-- QuizDetailComponent -->
<g id="node22" class="node">
<title>QuizDetailComponent</title>
<polygon fill="#ffffb3" stroke="#000000" points="2268.252,-198 2125.748,-198 2125.748,-162 2268.252,-162 2268.252,-198"/>
<text text-anchor="middle" x="2197" y="-175.8" font-family="Times,serif" font-size="14.00" fill="#000000">QuizDetailComponent</text>
</g>
<!-- QuizDetailComponent&#45;&gt;AppModule -->
<g id="edge22" class="edge">
<title>QuizDetailComponent&#45;&gt;AppModule</title>
<path fill="none" stroke="#000000" d="M2197,-198.0336C2197,-215.0597 2197,-238 2197,-238 2197,-238 2873.2448,-238 2873.2448,-238"/>
<polygon fill="#000000" stroke="#000000" points="2873.2448,-241.5001 2883.2448,-238 2873.2448,-234.5001 2873.2448,-241.5001"/>
</g>
<!-- QuizEditComponent -->
<g id="node23" class="node">
<title>QuizEditComponent</title>
<polygon fill="#ffffb3" stroke="#000000" points="2107.8781,-198 1976.1219,-198 1976.1219,-162 2107.8781,-162 2107.8781,-198"/>
<text text-anchor="middle" x="2042" y="-175.8" font-family="Times,serif" font-size="14.00" fill="#000000">QuizEditComponent</text>
</g>
<!-- QuizEditComponent&#45;&gt;AppModule -->
<g id="edge23" class="edge">
<title>QuizEditComponent&#45;&gt;AppModule</title>
<path fill="none" stroke="#000000" d="M2042,-198.002C2042,-215.6754 2042,-240 2042,-240 2042,-240 2873.3007,-240 2873.3007,-240"/>
<polygon fill="#000000" stroke="#000000" points="2873.3008,-243.5001 2883.3007,-240 2873.3007,-236.5001 2873.3008,-243.5001"/>
</g>
<!-- QuizListComponent -->
<g id="node24" class="node">
<title>QuizListComponent</title>
<polygon fill="#ffffb3" stroke="#000000" points="1958.323,-198 1827.677,-198 1827.677,-162 1958.323,-162 1958.323,-198"/>
<text text-anchor="middle" x="1893" y="-175.8" font-family="Times,serif" font-size="14.00" fill="#000000">QuizListComponent</text>
</g>
<!-- QuizListComponent&#45;&gt;AppModule -->
<g id="edge24" class="edge">
<title>QuizListComponent&#45;&gt;AppModule</title>
<path fill="none" stroke="#000000" d="M1893,-198.2667C1893,-216.5552 1893,-242 1893,-242 1893,-242 2873.2662,-242 2873.2662,-242"/>
<polygon fill="#000000" stroke="#000000" points="2873.2662,-245.5001 2883.2662,-242 2873.2662,-238.5001 2873.2662,-245.5001"/>
</g>
<!-- RatingComponent -->
<g id="node25" class="node">
<title>RatingComponent</title>
<polygon fill="#ffffb3" stroke="#000000" points="1810.1653,-198 1691.8347,-198 1691.8347,-162 1810.1653,-162 1810.1653,-198"/>
<text text-anchor="middle" x="1751" y="-175.8" font-family="Times,serif" font-size="14.00" fill="#000000">RatingComponent</text>
</g>
<!-- RatingComponent&#45;&gt;AppModule -->
<g id="edge25" class="edge">
<title>RatingComponent&#45;&gt;AppModule</title>
<path fill="none" stroke="#000000" d="M1751,-198.1686C1751,-217.0898 1751,-244 1751,-244 1751,-244 2873.2167,-244 2873.2167,-244"/>
<polygon fill="#000000" stroke="#000000" points="2873.2168,-247.5001 2883.2167,-244 2873.2167,-240.5001 2873.2168,-247.5001"/>
</g>
<!-- ReportsComponent -->
<g id="node26" class="node">
<title>ReportsComponent</title>
<polygon fill="#ffffb3" stroke="#000000" points="1673.3795,-198 1548.6205,-198 1548.6205,-162 1673.3795,-162 1673.3795,-198"/>
<text text-anchor="middle" x="1611" y="-175.8" font-family="Times,serif" font-size="14.00" fill="#000000">ReportsComponent</text>
</g>
<!-- ReportsComponent&#45;&gt;AppModule -->
<g id="edge26" class="edge">
<title>ReportsComponent&#45;&gt;AppModule</title>
<path fill="none" stroke="#000000" d="M1611,-198.0348C1611,-217.5762 1611,-246 1611,-246 1611,-246 2873.1375,-246 2873.1375,-246"/>
<polygon fill="#000000" stroke="#000000" points="2873.1375,-249.5001 2883.1375,-246 2873.1374,-242.5001 2873.1375,-249.5001"/>
</g>
<!-- SafeUrlPipe -->
<g id="node27" class="node">
<title>SafeUrlPipe</title>
<polygon fill="#ffffb3" stroke="#000000" points="1530.419,-198 1445.581,-198 1445.581,-162 1530.419,-162 1530.419,-198"/>
<text text-anchor="middle" x="1488" y="-175.8" font-family="Times,serif" font-size="14.00" fill="#000000">SafeUrlPipe</text>
</g>
<!-- SafeUrlPipe&#45;&gt;AppModule -->
<g id="edge27" class="edge">
<title>SafeUrlPipe&#45;&gt;AppModule</title>
<path fill="none" stroke="#000000" d="M1488,-198.2228C1488,-218.3652 1488,-248 1488,-248 1488,-248 2873.1582,-248 2873.1582,-248"/>
<polygon fill="#000000" stroke="#000000" points="2873.1582,-251.5001 2883.1582,-248 2873.1581,-244.5001 2873.1582,-251.5001"/>
</g>
<!-- SidebarComponent -->
<g id="node28" class="node">
<title>SidebarComponent</title>
<polygon fill="#ffffb3" stroke="#000000" points="1428.0954,-198 1303.9046,-198 1303.9046,-162 1428.0954,-162 1428.0954,-198"/>
<text text-anchor="middle" x="1366" y="-175.8" font-family="Times,serif" font-size="14.00" fill="#000000">SidebarComponent</text>
</g>
<!-- SidebarComponent&#45;&gt;AppModule -->
<g id="edge28" class="edge">
<title>SidebarComponent&#45;&gt;AppModule</title>
<path fill="none" stroke="#000000" d="M1366,-198.1289C1366,-218.5724 1366,-249 1366,-249 1366,-249 2873.3005,-249 2873.3005,-249"/>
<polygon fill="#000000" stroke="#000000" points="2873.3006,-252.5001 2883.3005,-249 2873.3005,-245.5001 2873.3006,-252.5001"/>
</g>
<!-- SignupComponent -->
<g id="node29" class="node">
<title>SignupComponent</title>
<polygon fill="#ffffb3" stroke="#000000" points="1285.5056,-198 1164.4944,-198 1164.4944,-162 1285.5056,-162 1285.5056,-198"/>
<text text-anchor="middle" x="1225" y="-175.8" font-family="Times,serif" font-size="14.00" fill="#000000">SignupComponent</text>
</g>
<!-- SignupComponent&#45;&gt;AppModule -->
<g id="edge29" class="edge">
<title>SignupComponent&#45;&gt;AppModule</title>
<path fill="none" stroke="#000000" d="M1225,-198.2843C1225,-219.3211 1225,-251 1225,-251 1225,-251 2872.9773,-251 2872.9773,-251"/>
<polygon fill="#000000" stroke="#000000" points="2872.9773,-254.5001 2882.9773,-251 2872.9773,-247.5001 2872.9773,-254.5001"/>
</g>
<!-- StudentAddComponent -->
<g id="node30" class="node">
<title>StudentAddComponent</title>
<polygon fill="#ffffb3" stroke="#000000" points="1146.2176,-198 997.7824,-198 997.7824,-162 1146.2176,-162 1146.2176,-198"/>
<text text-anchor="middle" x="1072" y="-175.8" font-family="Times,serif" font-size="14.00" fill="#000000">StudentAddComponent</text>
</g>
<!-- StudentAddComponent&#45;&gt;AppModule -->
<g id="edge30" class="edge">
<title>StudentAddComponent&#45;&gt;AppModule</title>
<path fill="none" stroke="#000000" d="M1072,-198.0449C1072,-219.6623 1072,-253 1072,-253 1072,-253 2873.2588,-253 2873.2588,-253"/>
<polygon fill="#000000" stroke="#000000" points="2873.2588,-256.5001 2883.2588,-253 2873.2587,-249.5001 2873.2588,-256.5001"/>
</g>
<!-- StudentDetailsComponent -->
<g id="node31" class="node">
<title>StudentDetailsComponent</title>
<polygon fill="#ffffb3" stroke="#000000" points="979.7632,-198 816.2368,-198 816.2368,-162 979.7632,-162 979.7632,-198"/>
<text text-anchor="middle" x="898" y="-175.8" font-family="Times,serif" font-size="14.00" fill="#000000">StudentDetailsComponent</text>
</g>
<!-- StudentDetailsComponent&#45;&gt;AppModule -->
<g id="edge31" class="edge">
<title>StudentDetailsComponent&#45;&gt;AppModule</title>
<path fill="none" stroke="#000000" d="M898,-198.1554C898,-220.3519 898,-255 898,-255 898,-255 2873.1285,-255 2873.1285,-255"/>
<polygon fill="#000000" stroke="#000000" points="2873.1285,-258.5001 2883.1285,-255 2873.1285,-251.5001 2873.1285,-258.5001"/>
</g>
<!-- StudentListComponent -->
<g id="node32" class="node">
<title>StudentListComponent</title>
<polygon fill="#ffffb3" stroke="#000000" points="797.8892,-198 652.1108,-198 652.1108,-162 797.8892,-162 797.8892,-198"/>
<text text-anchor="middle" x="725" y="-175.8" font-family="Times,serif" font-size="14.00" fill="#000000">StudentListComponent</text>
</g>
<!-- StudentListComponent&#45;&gt;AppModule -->
<g id="edge32" class="edge">
<title>StudentListComponent&#45;&gt;AppModule</title>
<path fill="none" stroke="#000000" d="M725,-198.2479C725,-221.0179 725,-257 725,-257 725,-257 2873.0166,-257 2873.0166,-257"/>
<polygon fill="#000000" stroke="#000000" points="2873.0166,-260.5001 2883.0166,-257 2873.0165,-253.5001 2873.0166,-260.5001"/>
</g>
<!-- UserProfileComponent -->
<g id="node33" class="node">
<title>UserProfileComponent</title>
<polygon fill="#ffffb3" stroke="#000000" points="633.8585,-198 488.1415,-198 488.1415,-162 633.8585,-162 633.8585,-198"/>
<text text-anchor="middle" x="561" y="-175.8" font-family="Times,serif" font-size="14.00" fill="#000000">UserProfileComponent</text>
</g>
<!-- UserProfileComponent&#45;&gt;AppModule -->
<g id="edge33" class="edge">
<title>UserProfileComponent&#45;&gt;AppModule</title>
<path fill="none" stroke="#000000" d="M561,-198.3228C561,-221.6602 561,-259 561,-259 561,-259 2873.2169,-259 2873.2169,-259"/>
<polygon fill="#000000" stroke="#000000" points="2873.217,-262.5001 2883.2169,-259 2873.2169,-255.5001 2873.217,-262.5001"/>
</g>
<!-- AppComponent  -->
<g id="node37" class="node">
<title>AppComponent </title>
<polygon fill="#80b1d3" stroke="#000000" points="2979.439,-334 2870.561,-334 2870.561,-298 2979.439,-298 2979.439,-334"/>
<text text-anchor="middle" x="2925" y="-311.8" font-family="Times,serif" font-size="14.00" fill="#000000">AppComponent </text>
</g>
<!-- AppModule&#45;&gt;AppComponent  -->
<g id="edge36" class="edge">
<title>AppModule&#45;&gt;AppComponent </title>
<path fill="none" stroke="#000000" stroke-dasharray="1,5" d="M2925,-266.2228C2925,-266.2228 2925,-287.7269 2925,-287.7269"/>
<polygon fill="#000000" stroke="#000000" points="2921.5001,-287.7269 2925,-297.7269 2928.5001,-287.727 2921.5001,-287.7269"/>
</g>
<!-- AppRoutingModule -->
<g id="node35" class="node">
<title>AppRoutingModule</title>
<polygon fill="#8dd3c7" stroke="#000000" points="5834.2744,-198 5831.2744,-202 5810.2744,-202 5807.2744,-198 5705.7256,-198 5705.7256,-162 5834.2744,-162 5834.2744,-198"/>
<text text-anchor="middle" x="5770" y="-175.8" font-family="Times,serif" font-size="14.00" fill="#000000">AppRoutingModule</text>
</g>
<!-- AppRoutingModule&#45;&gt;AppModule -->
<g id="edge34" class="edge">
<title>AppRoutingModule&#45;&gt;AppModule</title>
<path fill="none" stroke="#000000" d="M5770,-198.3802C5770,-222.2785 5770,-261 5770,-261 5770,-261 2976.8681,-261 2976.8681,-261"/>
<polygon fill="#000000" stroke="#000000" points="2976.8681,-257.5001 2966.8681,-261 2976.868,-264.5001 2976.8681,-257.5001"/>
</g>
<!-- SharedModule -->
<g id="node36" class="node">
<title>SharedModule</title>
<polygon fill="#8dd3c7" stroke="#000000" points="5951.4231,-198 5948.4231,-202 5927.4231,-202 5924.4231,-198 5852.5769,-198 5852.5769,-162 5951.4231,-162 5951.4231,-198"/>
<text text-anchor="middle" x="5902" y="-175.8" font-family="Times,serif" font-size="14.00" fill="#000000">SharedModule</text>
</g>
<!-- SharedModule&#45;&gt;AppModule -->
<g id="edge35" class="edge">
<title>SharedModule&#45;&gt;AppModule</title>
<path fill="none" stroke="#000000" d="M5885.5963,-198.0098C5885.5963,-222.4207 5885.5963,-263 5885.5963,-263 5885.5963,-263 2976.8519,-263 2976.8519,-263"/>
<polygon fill="#000000" stroke="#000000" points="2976.852,-259.5001 2966.8519,-263 2976.8519,-266.5001 2976.852,-259.5001"/>
</g>
<!-- MaterialModule  -->
<g id="node43" class="node">
<title>MaterialModule </title>
<polygon fill="#fb8072" stroke="#000000" points="6101.4716,-266 5990.5284,-266 5990.5284,-230 6101.4716,-230 6101.4716,-266"/>
<text text-anchor="middle" x="6046" y="-243.8" font-family="Times,serif" font-size="14.00" fill="#000000">MaterialModule </text>
</g>
<!-- SharedModule&#45;&gt;MaterialModule  -->
<g id="edge42" class="edge">
<title>SharedModule&#45;&gt;MaterialModule </title>
<path fill="none" stroke="#000000" stroke-dasharray="5,2" d="M5918.4037,-198.0263C5918.4037,-222.9773 5918.4037,-265 5918.4037,-265 5918.4037,-265 5980.4056,-265 5980.4056,-265"/>
<polygon fill="#000000" stroke="#000000" points="5980.4056,-268.5001 5990.4056,-265 5980.4055,-261.5001 5980.4056,-268.5001"/>
</g>
<!-- BookService -->
<g id="node38" class="node">
<title>BookService</title>
<ellipse fill="#fdb462" stroke="#000000" cx="403" cy="-180" rx="60.8352" ry="18"/>
<text text-anchor="middle" x="403" y="-175.8" font-family="Times,serif" font-size="14.00" fill="#000000">BookService</text>
</g>
<!-- BookService&#45;&gt;AppModule -->
<g id="edge37" class="edge">
<title>BookService&#45;&gt;AppModule</title>
<path fill="none" stroke="#000000" d="M403,-198.3802C403,-222.2785 403,-261 403,-261 403,-261 2873.3301,-261 2873.3301,-261"/>
<polygon fill="#000000" stroke="#000000" points="2873.3302,-264.5001 2883.3301,-261 2873.3301,-257.5001 2873.3302,-264.5001"/>
</g>
<!-- ErrorInterceptor -->
<g id="node39" class="node">
<title>ErrorInterceptor</title>
<ellipse fill="#fdb462" stroke="#000000" cx="250" cy="-180" rx="73.5329" ry="18"/>
<text text-anchor="middle" x="250" y="-175.8" font-family="Times,serif" font-size="14.00" fill="#000000">ErrorInterceptor</text>
</g>
<!-- ErrorInterceptor&#45;&gt;AppModule -->
<g id="edge38" class="edge">
<title>ErrorInterceptor&#45;&gt;AppModule</title>
<path fill="none" stroke="#000000" d="M250,-198.0098C250,-222.4207 250,-263 250,-263 250,-263 2873.251,-263 2873.251,-263"/>
<polygon fill="#000000" stroke="#000000" points="2873.251,-266.5001 2883.251,-263 2873.2509,-259.5001 2873.251,-266.5001"/>
</g>
<!-- JwtInterceptor -->
<g id="node40" class="node">
<title>JwtInterceptor</title>
<ellipse fill="#fdb462" stroke="#000000" cx="91" cy="-180" rx="66.6094" ry="18"/>
<text text-anchor="middle" x="91" y="-175.8" font-family="Times,serif" font-size="14.00" fill="#000000">JwtInterceptor</text>
</g>
<!-- JwtInterceptor&#45;&gt;AppModule -->
<g id="edge39" class="edge">
<title>JwtInterceptor&#45;&gt;AppModule</title>
<path fill="none" stroke="#000000" d="M91,-198.0263C91,-222.9773 91,-265 91,-265 91,-265 2873.2938,-265 2873.2938,-265"/>
<polygon fill="#000000" stroke="#000000" points="2873.2938,-268.5001 2883.2938,-265 2873.2938,-261.5001 2873.2938,-268.5001"/>
</g>
<!-- AuthService -->
<g id="node41" class="node">
<title>AuthService</title>
<ellipse fill="#fdb462" stroke="#000000" cx="5770" cy="-104" rx="59.1083" ry="18"/>
<text text-anchor="middle" x="5770" y="-99.8" font-family="Times,serif" font-size="14.00" fill="#000000">AuthService</text>
</g>
<!-- AuthService&#45;&gt;AppRoutingModule -->
<g id="edge40" class="edge">
<title>AuthService&#45;&gt;AppRoutingModule</title>
<path fill="none" stroke="#000000" d="M5770,-122.0109C5770,-122.0109 5770,-151.855 5770,-151.855"/>
<polygon fill="#000000" stroke="#000000" points="5766.5001,-151.8549 5770,-161.855 5773.5001,-151.855 5766.5001,-151.8549"/>
</g>
<!-- MaterialModule -->
<g id="node42" class="node">
<title>MaterialModule</title>
<polygon fill="#8dd3c7" stroke="#000000" points="6231.4706,-266 6228.4706,-270 6207.4706,-270 6204.4706,-266 6124.5294,-266 6124.5294,-230 6231.4706,-230 6231.4706,-266"/>
<text text-anchor="middle" x="6178" y="-243.8" font-family="Times,serif" font-size="14.00" fill="#000000">MaterialModule</text>
</g>
<!-- MaterialModule&#45;&gt;SharedModule -->
<g id="edge41" class="edge">
<title>MaterialModule&#45;&gt;SharedModule</title>
<path fill="none" stroke="#000000" d="M6178,-229.7772C6178,-209.6348 6178,-180 6178,-180 6178,-180 5961.3433,-180 5961.3433,-180"/>
<polygon fill="#000000" stroke="#000000" points="5961.3433,-176.5001 5951.3433,-180 5961.3432,-183.5001 5961.3433,-176.5001"/>
</g>
</g>
</svg>
